<mxfile host="app.diagrams.net" modified="2024-07-07T21:16:09.100Z" agent="Mozilla/5.0 (Macintosh; Intel Mac OS X 10_15_7) AppleWebKit/537.36 (KHTML, like Gecko) Chrome/126.0.0.0 Safari/537.36" version="24.6.4" etag="OR1C5O90QcxR6C12dHzs" type="github">
  <diagram name="Page-1" id="do4A0sLOPX6WIKDJrk11">
    <mxGraphModel>
      <root>
        <mxCell id="0" />
        <mxCell id="1" parent="0" />
      </root>
    </mxGraphModel>
  </diagram>
</mxfile>
